<svg version="1.1" xmlns="http://www.w3.org/2000/svg" xmlns:xlink="http://www.w3.org/1999/xlink" width="86.66277" height="37.84252" viewBox="0,0,86.66277,37.84252"><g transform="translate(-196.20675,-165.20464)"><g data-paper-data="{&quot;isPaintingLayer&quot;:true}" fill-rule="evenodd" stroke-linejoin="miter" stroke-miterlimit="10" stroke-dasharray="" stroke-dashoffset="0" style="mix-blend-mode: normal"><g stroke-linecap="butt"><path d="M249.57929,168.69421c2.46805,-0.51919 6.06842,-0.23796 8.81124,0.68823l2.83366,0.95682l-1.04846,3.06236c-1.73106,5.05612 -9.15986,9.06686 -20.66575,11.15696l-0.50927,0.09239l-16.91422,-14.13108c1.09751,-0.13109 2.01448,-0.38497 2.63226,-0.74739l1.3127,-0.77007c1.40352,-0.82336 4.32961,-1.07713 7.34922,-0.63718l7.26854,1.05901c2.05362,0.29921 4.1148,0.28309 5.67267,-0.04478l3.25743,-0.68528" fill="#00b27b" stroke="none" stroke-width="1"/><path d="M254.74162,165.43059c4.2944,0.62569 7.36219,2.33976 6.8525,3.82846l-0.36983,1.08021l-2.83366,-0.95682c-2.74283,-0.9262 -6.3432,-1.20743 -8.81124,-0.68823l-3.25743,0.68528c-1.55817,0.32782 -3.61905,0.34398 -5.67267,0.04478l-7.26893,-1.05907c-3.01923,-0.4399 -5.9453,-0.18612 -7.34912,0.63719l-1.3127,0.77007c-0.61749,0.36246 -1.53486,0.61628 -2.63197,0.74743l-3.66636,-3.06327c-1.86579,-1.55883 1.86766,-2.6583 5.84486,-1.72155l2.36678,0.55747c1.95429,0.46032 4.13914,0.37831 5.08339,-0.19083c1.11032,-0.669 3.87194,-0.64724 5.91857,0.04683l1.70883,0.57945c1.87685,0.63666 4.3969,0.71628 5.65704,0.17883l2.41697,-1.03052c1.62469,-0.69265 4.45015,-0.86456 7.32498,-0.44571" fill="#19242d" stroke="none" stroke-width="1"/><path d="M218.36037,170.52977c1.37928,0.13345 2.69371,0.12037 3.81456,-0.02187l17.16474,14.19248l-29.07099,-4.17805c0.28447,-0.83091 -1.42801,-1.78755 -3.82479,-2.13676l-2.50419,-0.36485l2.97164,-0.79443c2.8321,-0.75715 4.38728,-2.00673 4.32294,-3.47404l-0.05715,-1.29718c-0.06383,-1.45414 3.15005,-2.31562 7.18326,-1.92531" fill="#f2f253" stroke="none" stroke-width="1"/><path d="M206.85914,168.66872c0.85469,-2.49638 10.55395,-2.09811 13.77575,0.56574l1.54004,1.27345c-1.12084,0.14223 -2.435,0.15539 -3.81456,0.0219c-4.03291,-0.39026 -7.24709,0.47114 -7.18326,1.92527l0.05706,1.29716c0.06433,1.46731 -1.49076,2.71693 -4.32294,3.47404l-2.97165,0.79446l-3.36034,-0.48959c-3.54877,-0.51705 -5.15088,-2.20581 -2.76552,-2.91499l0.56511,-0.16795c1.59703,-0.4748 1.09545,-1.53426 -1.01934,-2.15374c-1.08379,-0.31747 -1.4754,-0.84557 -0.86311,-1.16361l0.03502,-0.01808c0.57243,-0.29744 1.80444,-0.31316 2.8498,-0.03634l1.52708,0.4044c2.26638,0.6002 4.87171,0.33995 5.16465,-0.51565l0.78624,-2.29645" fill="#19242d" stroke="none" stroke-width="1"/><path d="M243.80381,177.5387c-4.11513,-0.59957 -7.05507,-2.24212 -6.56664,-3.66873c0.48839,-1.4265 4.22024,-2.097 8.33537,-1.49743c4.11503,0.59955 7.05497,2.24211 6.56658,3.66861c-0.48842,1.4266 -4.22028,2.09709 -8.33531,1.49754" fill="#19242d" stroke="none" stroke-width="1"/><path d="M243.80381,177.5387c-4.11513,-0.59957 -7.05507,-2.24212 -6.56664,-3.66873c0.48839,-1.4265 4.22024,-2.097 8.33537,-1.49743c4.11503,0.59955 7.05497,2.24211 6.56658,3.66861c-0.48842,1.4266 -4.22028,2.09709 -8.33531,1.49754z" fill="none" stroke="#f2f253" stroke-width="3.5"/><path d="M220.08923,178.86333c-2.46524,-0.35918 -4.22607,-1.34306 -3.9335,-2.19759c0.29261,-0.85466 2.52777,-1.25623 4.99302,-0.89705c2.46485,0.35912 4.2261,1.34296 3.93349,2.19763c-0.29256,0.85453 -2.52815,1.25614 -4.993,0.89702" fill="#19242d" stroke="none" stroke-width="1"/></g><g stroke-linecap="butt"><path d="M225.82816,198.60083c-0.63949,-0.31401 -1.57559,-0.53537 -2.6877,-0.65148l16.40818,-12.12852l0.51739,0.08108c11.69594,1.83349 19.36884,5.3104 21.34492,9.67207l1.19683,2.6417l-2.81338,0.81645c-2.72299,0.79033 -6.34028,1.02235 -8.85215,0.5681l-3.31563,-0.59979c-1.58548,-0.28681 -3.66405,-0.30656 -5.72128,-0.0545l-7.27994,0.89196c-3.02436,0.37055 -5.98606,0.14362 -7.43874,-0.5699l-1.35849,-0.66718" fill="#00b27b" stroke="none" stroke-width="1"/><path d="M225.55511,202.07842c-3.96748,0.79605 -7.78153,-0.162 -5.97185,-1.49988l3.55707,-2.6292c1.11215,0.11619 2.0486,0.33741 2.6877,0.65148l1.35849,0.66718c1.45267,0.71351 4.41439,0.94045 7.43874,0.5699l7.28033,-0.89201c2.05684,-0.25201 4.13544,-0.23217 5.72094,0.05467l3.31558,0.59968c2.51227,0.4542 6.12916,0.22223 8.85215,-0.5681l2.81338,-0.81645l0.42217,0.93183c0.58185,1.28428 -2.43305,2.7525 -6.73389,3.27945c-2.87961,0.35282 -5.73605,0.19669 -7.40541,-0.40477l-2.48396,-0.89478c-1.29489,-0.46659 -3.83236,-0.40516 -5.69528,0.13808l-1.69639,0.49455c-2.03176,0.59229 -4.81537,0.60328 -5.96525,0.02346c-0.9778,-0.49292 -3.18439,-0.56985 -5.13373,-0.1787l-2.3608,0.47363" fill="#19242d" stroke="none" stroke-width="1"/><path d="M212.05103,195.13345c-0.00205,-1.26403 -1.62664,-2.3452 -4.51661,-3.0057l-3.03267,-0.6928l2.50851,-0.30735c2.40015,-0.29408 4.08307,-1.11375 3.75838,-1.83041l29.11951,-3.51796l-16.65837,12.18071c-1.13656,-0.12576 -2.4621,-0.14078 -3.84692,-0.02966c-4.04821,0.32496 -7.32786,-0.42649 -7.33015,-1.67925l-0.00169,-1.11759" fill="#f2f253" stroke="none" stroke-width="1"/><path d="M198.48098,194.35115c-2.43772,-0.61777 -0.89947,-2.06827 2.65526,-2.50381l3.36561,-0.41237l3.03227,0.69284c2.89001,0.66038 4.51492,1.74153 4.517,3.00565l0.00169,1.11759c0.002,1.2528 3.28151,2.00417 7.33015,1.67925c1.38452,-0.11109 2.71035,-0.0961 3.84692,0.02966l-1.49461,1.09284c-3.12667,2.28629 -12.88748,2.60205 -13.86311,0.44859l-0.89749,-1.98097c-0.33444,-0.73818 -2.97307,-0.9698 -5.23067,-0.45904l-1.52117,0.34414c-1.04132,0.23557 -2.28412,0.21866 -2.87483,-0.03925l-0.03614,-0.01571c-0.63188,-0.27587 -0.2611,-0.72968 0.81706,-1.00029c2.10396,-0.5277 2.56132,-1.43917 0.92948,-1.85281l-0.57741,-0.14632" fill="#19242d" stroke="none" stroke-width="1"/><path d="M244.71565,191.96292c4.12148,-0.50498 7.91461,0.08331 8.47215,1.31395c0.5575,1.23055 -2.33163,2.63757 -6.45311,3.14255c-4.12158,0.50499 -7.91471,-0.0833 -8.47222,-1.31385c-0.55755,-1.23063 2.33159,-2.63766 6.45317,-3.14265" fill="#19242d" stroke="none" stroke-width="1"/><path d="M253.18781,193.27687c0.5575,1.23055 -2.33163,2.63757 -6.45311,3.14255c-4.12158,0.50499 -7.91471,-0.0833 -8.47222,-1.31385c-0.55755,-1.23063 2.33159,-2.63766 6.45317,-3.14265c4.12148,-0.50498 7.91461,0.08331 8.47215,1.31395z" fill="none" stroke="#f2f253" stroke-width="3.5"/><path d="M221.91298,193.33087c-2.46911,0.30252 -4.74102,-0.04993 -5.07498,-0.78708c-0.33402,-0.73726 1.39641,-1.57997 3.86552,-1.8825c2.46872,-0.30248 4.74096,0.04981 5.07498,0.78708c0.33397,0.73714 -1.39681,1.58002 -3.86552,1.8825" fill="#19242d" stroke="none" stroke-width="1"/></g><g><path d="M282.34452,166.09192l-2.95065,4.2443c-5.48727,7.89275 -14.12557,12.96346 -23.63859,13.87468l-5.87278,0.56246" fill="none" stroke="#19242d" stroke-width="1.05" stroke-linecap="round"/><path d="M248.94549,184.787l5.88669,0.39244c9.53488,0.63553 18.31656,5.45438 24.02972,13.1852l3.07212,4.15752" fill="none" stroke="#19242d" stroke-width="1.05" stroke-linecap="round"/><path d="M246.51728,184.83131c-0.01355,-0.9369 0.73499,-1.7145 1.66319,-1.72792l7.6344,-0.11038c0.9281,-0.01342 1.69881,0.74222 1.71235,1.67912c0.01354,0.9366 -0.735,1.7142 -1.6631,1.72762l-7.6344,0.11038c-0.9282,0.01342 -1.69891,-0.74222 -1.71245,-1.67882" fill="#19242d" stroke="none" stroke-width="1" stroke-linecap="butt"/><path d="M242.47368,189.8964c-14.45069,0.20893 -43.60445,-1.61111 -43.64442,-4.37562c-0.03997,-2.76441 29.04898,-5.42691 43.49967,-5.63583c4.58012,-0.06622 8.79019,2.11485 8.83016,4.87926c0.03997,2.76451 -4.80162,5.07604 -8.68541,5.1322" fill="#19242d" stroke="none" stroke-width="1" stroke-linecap="butt"/><path d="M241.84147,190.57811c-5.38364,0.07784 -9.78473,-2.4012 -9.83007,-5.53697c-0.04534,-3.13617 4.28225,-5.74141 9.66589,-5.81924c5.38374,-0.07784 9.78473,2.4012 9.83008,5.53737c0.04534,3.13577 -4.28215,5.741 -9.66589,5.81884" fill="#19242d" stroke="none" stroke-width="1" stroke-linecap="butt"/><path d="M252.64001,183.75149c-1.09709,0.01586 -1.99957,-0.86888 -2.01557,-1.97557c-0.016,-1.10698 0.86053,-2.01745 1.95761,-2.03331c1.09699,-0.01586 1.99947,0.86889 2.01547,1.97587c0.016,1.10668 -0.86053,2.01715 -1.95751,2.03301" fill="#fcf6ed" stroke="none" stroke-width="1" stroke-linecap="butt"/><path d="M252.72636,189.72376c-1.09709,0.01586 -1.99957,-0.86888 -2.01557,-1.97547c-0.016,-1.10698 0.86053,-2.01745 1.95761,-2.03331c1.09699,-0.01586 1.99947,0.86889 2.01547,1.97587c0.016,1.10658 -0.86053,2.01705 -1.95752,2.03291" fill="#fcf6ed" stroke="none" stroke-width="1" stroke-linecap="butt"/><path d="M252.62738,182.87768c-0.61874,0.00895 -1.1277,-0.49005 -1.13673,-1.11438c-0.00903,-0.62423 0.4853,-1.13773 1.10404,-1.14668c0.61864,-0.00894 1.1276,0.49005 1.13663,1.11428c0.00903,0.62433 -0.4853,1.13783 -1.10394,1.14678" fill="#19242d" stroke="none" stroke-width="1" stroke-linecap="butt"/><path d="M252.71372,188.84995c-0.61874,0.00895 -1.1277,-0.49005 -1.13673,-1.11428c-0.00903,-0.62433 0.4853,-1.13783 1.10404,-1.14678c0.61864,-0.00894 1.1276,0.49005 1.13663,1.11438c0.00903,0.62423 -0.4853,1.13773 -1.10394,1.14668" fill="#19242d" stroke="none" stroke-width="1" stroke-linecap="butt"/></g></g></g></svg>