<svg version="1.1" xmlns="http://www.w3.org/2000/svg" xmlns:xlink="http://www.w3.org/1999/xlink" width="86.10333" height="129.70351" viewBox="0,0,86.10333,129.70351"><g transform="translate(-196.7662,-119.89652)"><g data-paper-data="{&quot;isPaintingLayer&quot;:true}" fill-rule="evenodd" stroke-linejoin="miter" stroke-miterlimit="10" stroke-dasharray="" stroke-dashoffset="0" style="mix-blend-mode: normal"><g stroke-linecap="butt"><path d="M247.61468,131.38666c2.2038,-2.53412 5.8092,-3.27912 8.82356,-1.82335l3.11417,1.50384l0.13233,9.15284c0.21848,15.11182 -5.49447,29.69653 -15.89264,40.57159l-0.46029,0.481l-21.75446,-32.90535c1.01752,-0.8433 1.81338,-1.95812 2.27761,-3.25307l0.98643,-2.75155c1.05468,-2.94195 3.8035,-4.9182 6.90407,-4.96303l7.46342,-0.1079c2.10868,-0.03049 4.10615,-0.96036 5.49716,-2.56034l2.90865,-3.3447" fill="#00b27b" stroke="none" stroke-width="1"/><path d="M251.40548,119.89736c4.40954,-0.06375 8.03602,3.49179 8.10035,7.94123l0.04668,3.22856l-3.11417,-1.50384c-3.01436,-1.45578 -6.61977,-0.71078 -8.82356,1.82335l-2.90865,3.3447c-1.39132,1.59998 -3.38848,2.52985 -5.49716,2.56034l-7.46382,0.10791c-3.10018,0.04482 -5.84899,2.02107 -6.90397,4.96302l-0.98643,2.75155c-0.46393,1.29494 -1.2602,2.40977 -2.27731,3.25306l-4.71561,-7.13318c-2.39973,-3.62989 0.81589,-8.35587 5.03406,-7.39955l2.51019,0.56917c2.07271,0.46999 4.16561,-0.70019 4.86945,-2.72268c0.82772,-2.37751 3.52027,-3.50016 5.77063,-2.40547l1.87891,0.91383c2.06374,1.00437 4.54324,0.14974 5.56605,-1.91817l1.96188,-3.96538c1.31881,-2.66534 4.0006,-4.36579 6.9525,-4.40847" fill="#19242d" stroke="none" stroke-width="1"/><path d="M217.95917,149.99352c1.39088,-0.21233 2.66362,-0.81329 3.69964,-1.69826l22.02106,32.9724l-29.82881,0.59508c-0.03591,-2.48344 -2.0602,-4.46768 -4.52124,-4.4321l-2.57133,0.03718l2.58981,-3.53231c2.46819,-3.36653 3.51002,-7.58483 2.89577,-11.72729l-0.5433,-3.66203c-0.60881,-4.10523 2.19126,-7.93201 6.25841,-8.55267" fill="#f2f253" stroke="none" stroke-width="1"/><path d="M206.07988,149.63751c-0.10787,-7.46122 9.46985,-10.4895 13.60315,-4.3008l1.97578,2.95855c-1.03601,0.88497 -2.30846,1.48603 -3.69963,1.69836c-4.06685,0.62066 -6.86723,4.44734 -6.25842,8.55257l0.5432,3.66203c0.61425,4.14245 -0.42748,8.36085 -2.89577,11.72729l-2.58981,3.53241l-3.45044,0.04989c-3.64392,0.05268 -5.8362,-4.05955 -3.78421,-7.09814l0.48615,-0.7197c1.37383,-2.03437 0.48792,-4.83016 -1.80065,-5.68366c-1.17285,-0.43739 -1.75207,-1.77026 -1.27649,-2.93675l0.02724,-0.0664c0.44458,-1.09084 1.63622,-1.66393 2.75642,-1.32559l1.63642,0.4943c2.42866,0.73367 4.86327,-1.12342 4.8263,-3.68066l-0.09923,-6.86368" fill="#19242d" stroke="none" stroke-width="1"/><path d="M245.32632,158.99963c-4.22546,0.06109 -7.70078,-3.34602 -7.76242,-7.60988c-0.06164,-4.26355 3.31372,-7.76972 7.53918,-7.83081c4.22536,-0.06109 7.70068,3.34603 7.76232,7.60958c0.06165,4.26385 -3.31372,7.77002 -7.53908,7.83111" fill="#19242d" stroke="none" stroke-width="1"/><path d="M245.32632,158.99963c-4.22546,0.06109 -7.70078,-3.34602 -7.76242,-7.60988c-0.06164,-4.26355 3.31372,-7.76972 7.53918,-7.83081c4.22536,-0.06109 7.70068,3.34603 7.76232,7.60958c0.06165,4.26385 -3.31372,7.77002 -7.53908,7.83111z" fill="none" stroke="#f2f253" stroke-width="3.5"/><path d="M222.77313,172.93572c-2.53134,0.0366 -4.61286,-2.00432 -4.64978,-4.55836c-0.03693,-2.55443 1.98472,-4.65438 4.51606,-4.69098c2.53094,-0.03659 4.61285,2.00402 4.64978,4.55846c0.03693,2.55403 -1.98512,4.65428 -4.51606,4.69088" fill="#19242d" stroke="none" stroke-width="1"/></g><g stroke-linecap="butt"><path d="M225.01266,225.18951c-0.50157,-1.28098 -1.32933,-2.37233 -2.3704,-3.18587l20.79399,-33.52081l0.47371,0.4675c10.70832,10.5699 16.84053,24.98336 17.05902,40.09548l0.13233,9.15284l-3.06949,1.59324c-2.97091,1.54241 -6.59646,0.90145 -8.87249,-1.5675l-3.00424,-3.25961c-1.43658,-1.5587 -3.4598,-2.43044 -5.56888,-2.39995l-7.46342,0.1079c-3.10058,0.04483 -5.90538,-1.85112 -7.04467,-4.76166l-1.06546,-2.72158" fill="#00b27b" stroke="none" stroke-width="1"/><path d="M223.3806,236.52098c-4.18915,1.07817 -7.53975,-3.55317 -5.24627,-7.25092l4.50782,-7.26653c1.04107,0.81383 1.86923,1.90488 2.3704,3.18587l1.06546,2.72158c1.13929,2.91053 3.9441,4.80649 7.04467,4.76166l7.46382,-0.10791c2.10868,-0.03049 4.1319,0.84156 5.56848,2.40035l3.00423,3.25921c2.27643,2.46895 5.90157,3.10991 8.87249,1.5675l3.06949,-1.59324l0.04668,3.22856c0.06433,4.44973 -3.45794,8.10834 -7.86718,8.17208c-2.95219,0.04268 -5.68193,-1.57953 -7.07694,-4.20563l-2.0758,-3.907c-1.08206,-2.03717 -3.58554,-2.82006 -5.61908,-1.75645l-1.8517,0.96807c-2.21777,1.15938 -4.94195,0.11505 -5.83787,-2.23824c-0.7619,-2.00069 -2.88776,-3.11018 -4.94602,-2.58037l-2.49269,0.6414" fill="#19242d" stroke="none" stroke-width="1"/><path d="M212.91224,208.43808c0.49424,-4.15808 -0.6687,-8.34451 -3.23319,-11.63858l-2.69124,-3.45566l2.57173,-0.03718c2.46064,-0.03558 4.42682,-2.07821 4.39092,-4.56125l29.83385,-0.26762l-21.05894,33.59535c-1.06117,-0.85475 -2.35045,-1.41867 -3.74719,-1.5907c-4.08309,-0.50253 -6.99263,-4.24696 -6.50305,-8.36806l0.4371,-3.6763" fill="#f2f253" stroke="none" stroke-width="1"/><path d="M199.96004,200.598c-2.13937,-2.97798 -0.06689,-7.15148 3.57743,-7.20417l3.45044,-0.04989l2.69084,3.45566c2.56458,3.29367 3.72783,7.48019 3.23359,11.63857l-0.4371,3.6763c-0.48988,4.12111 2.41956,7.86524 6.50305,8.36806c1.39643,0.17203 2.68602,0.73595 3.74719,1.5907l-1.88942,3.01413c-3.95265,6.3058 -13.61392,3.55568 -13.72179,-3.90554l-0.09923,-6.86358c-0.03698,-2.55763 -2.52426,-4.34356 -4.93069,-3.53999l-1.62144,0.5414c-1.10996,0.37058 -2.31766,-0.16741 -2.79359,-1.24495l-0.02915,-0.06569c-0.50911,-1.15256 0.03134,-2.50121 1.19105,-2.97273c2.26295,-0.91891 3.06767,-3.73914 1.63559,-5.73294l-0.50675,-0.70535" fill="#19242d" stroke="none" stroke-width="1"/><path d="M246.07364,210.68913c4.22536,-0.06109 7.70068,3.34603 7.76232,7.60988c0.06164,4.26355 -3.31372,7.76972 -7.53908,7.83081c-4.22546,0.06109 -7.70078,-3.34602 -7.76242,-7.60958c-0.06165,-4.26385 3.31372,-7.77002 7.53918,-7.83111" fill="#19242d" stroke="none" stroke-width="1"/><path d="M253.83596,218.29901c0.06164,4.26355 -3.31372,7.76972 -7.53908,7.83081c-4.22546,0.06109 -7.70078,-3.34602 -7.76242,-7.60958c-0.06165,-4.26385 3.31372,-7.77002 7.53918,-7.83111c4.22536,-0.06109 7.70068,3.34603 7.76232,7.60988z" fill="none" stroke="#f2f253" stroke-width="3.5"/><path d="M223.25605,206.33743c-2.53134,0.0366 -4.61286,-2.00442 -4.64978,-4.55846c-0.03693,-2.55443 1.98472,-4.65438 4.51606,-4.69098c2.53094,-0.03659 4.61285,2.00402 4.64978,4.55846c0.03693,2.55403 -1.98512,4.65438 -4.51606,4.69098" fill="#19242d" stroke="none" stroke-width="1"/></g><g><path d="M282.34452,166.09192l-2.95065,4.2443c-5.48727,7.89275 -14.12557,12.96346 -23.63859,13.87468l-5.87278,0.56246" fill="none" stroke="#19242d" stroke-width="1.05" stroke-linecap="round"/><path d="M248.94549,184.787l5.88669,0.39244c9.53488,0.63553 18.31656,5.45438 24.02972,13.1852l3.07212,4.15752" fill="none" stroke="#19242d" stroke-width="1.05" stroke-linecap="round"/><path d="M246.51728,184.83131c-0.01355,-0.9369 0.73499,-1.7145 1.66319,-1.72792l7.6344,-0.11038c0.9281,-0.01342 1.69881,0.74222 1.71235,1.67912c0.01354,0.9366 -0.735,1.7142 -1.6631,1.72762l-7.6344,0.11038c-0.9282,0.01342 -1.69891,-0.74222 -1.71245,-1.67882" fill="#19242d" stroke="none" stroke-width="1" stroke-linecap="butt"/><path d="M242.47368,189.8964c-14.45069,0.20893 -43.60445,-1.61111 -43.64442,-4.37562c-0.03997,-2.76441 29.04898,-5.42691 43.49967,-5.63583c4.58012,-0.06622 8.79019,2.11485 8.83016,4.87926c0.03997,2.76451 -4.80162,5.07604 -8.68541,5.1322" fill="#19242d" stroke="none" stroke-width="1" stroke-linecap="butt"/><path d="M241.84147,190.57811c-5.38364,0.07784 -9.78473,-2.4012 -9.83007,-5.53697c-0.04534,-3.13617 4.28225,-5.74141 9.66589,-5.81924c5.38374,-0.07784 9.78473,2.4012 9.83008,5.53737c0.04534,3.13577 -4.28215,5.741 -9.66589,5.81884" fill="#19242d" stroke="none" stroke-width="1" stroke-linecap="butt"/><path d="M252.64001,183.75149c-1.09709,0.01586 -1.99957,-0.86888 -2.01557,-1.97557c-0.016,-1.10698 0.86053,-2.01745 1.95761,-2.03331c1.09699,-0.01586 1.99947,0.86889 2.01547,1.97587c0.016,1.10668 -0.86053,2.01715 -1.95751,2.03301" fill="#fcf6ed" stroke="none" stroke-width="1" stroke-linecap="butt"/><path d="M252.72636,189.72376c-1.09709,0.01586 -1.99957,-0.86888 -2.01557,-1.97547c-0.016,-1.10698 0.86053,-2.01745 1.95761,-2.03331c1.09699,-0.01586 1.99947,0.86889 2.01547,1.97587c0.016,1.10658 -0.86053,2.01705 -1.95752,2.03291" fill="#fcf6ed" stroke="none" stroke-width="1" stroke-linecap="butt"/><path d="M252.62738,182.87768c-0.61874,0.00895 -1.1277,-0.49005 -1.13673,-1.11438c-0.00903,-0.62423 0.4853,-1.13773 1.10404,-1.14668c0.61864,-0.00894 1.1276,0.49005 1.13663,1.11428c0.00903,0.62433 -0.4853,1.13783 -1.10394,1.14678" fill="#19242d" stroke="none" stroke-width="1" stroke-linecap="butt"/><path d="M252.71372,188.84995c-0.61874,0.00895 -1.1277,-0.49005 -1.13673,-1.11428c-0.00903,-0.62433 0.4853,-1.13783 1.10404,-1.14678c0.61864,-0.00894 1.1276,0.49005 1.13663,1.11438c0.00903,0.62423 -0.4853,1.13773 -1.10394,1.14668" fill="#19242d" stroke="none" stroke-width="1" stroke-linecap="butt"/></g></g></g></svg>